# xmcd
#
# Track frame offsets: 
#        150
#        16793
#        29217
#        46169
#        74883
#        98772
#        132333
#        160431
#        176755
#        196895
#        220454
#        241226
#        260933
#        279955
#        296882
#        311638
#
# Disc length: 4382 seconds
#
# Revision: 0
# Processed by: cddbd v1.5.2PL0 Copyright (c) Steve Scherf et al.
# Submitted via: ExactAudioCopyFreeDBPlugin 1.0
#
DISCID=00111c10
DTITLE=Verschiedene Interpreten - The Tropical Club Night
DYEAR=2014
DGENRE=Pop
TTITLE0=Irie Maffia - Bacardi Cola
TTITLE1=Stylo G and Sister Nancy - Badd
TTITLE2=Aztechminimal - Javier Estrada
TTITLE3=Pete Tha Zouk - Medizina Sagrada
TTITLE4=Eric Costa - La Boca De
TTITLE5=Kevin Cowens and Ga-l - El Revelution
TTITLE6=Riva Starr and Horace Andy - Dublife
TTITLE7=Buraka Som Sistema - Burakaton
TTITLE8=Lion D - Man A Real Hustla
TTITLE9=Digital Project - Dunga
TTITLE10=Carlos Barbosa and Blasterjaxx - Toca Flute
TTITLE11=Superpendejos - La Princesa De La Cumbia
TTITLE12=Bounce!!! - Blaklight
TTITLE13=Gregor Salto - Drumology
TTITLE14=Mastiksoul and Dmol - Turn Up
TTITLE15=Fed Conti - I Don't Speak Latino
EXTD=
EXTT0=
EXTT1=
EXTT2=
EXTT3=
EXTT4=
EXTT5=
EXTT6=
EXTT7=
EXTT8=
EXTT9=
EXTT10=
EXTT11=
EXTT12=
EXTT13=
EXTT14=
EXTT15=
PLAYORDER=
